<svg xmlns="http://www.w3.org/2000/svg" width="1100" height="540" viewBox="0 0 1100 540" role="img" aria-label="Daily temperature history and linear-regression forecast">
<style>text{font-family:Arial,sans-serif;fill:#344054;font-size:14px}.grid{stroke:#d0d5dd;stroke-width:1}.axis{stroke:#667085;stroke-width:1.5}.history{fill:none;stroke:#2563eb;stroke-width:2}.forecast{fill:none;stroke:#f97316;stroke-width:2.5;stroke-dasharray:7 5}</style>
<rect width="100%" height="100%" fill="white"/><text x="70" y="32" font-size="20" font-weight="bold">Daily temperature and 30-day forecast</text>
<line x1="70" y1="470.0" x2="1030" y2="470.0" class="grid"/><text x="58" y="474.0" text-anchor="end">16°C</text><line x1="70" y1="390.0" x2="1030" y2="390.0" class="grid"/><text x="58" y="394.0" text-anchor="end">20°C</text><line x1="70" y1="310.0" x2="1030" y2="310.0" class="grid"/><text x="58" y="314.0" text-anchor="end">24°C</text><line x1="70" y1="230.0" x2="1030" y2="230.0" class="grid"/><text x="58" y="234.0" text-anchor="end">28°C</text><line x1="70" y1="150.0" x2="1030" y2="150.0" class="grid"/><text x="58" y="154.0" text-anchor="end">32°C</text><line x1="70" y1="70.0" x2="1030" y2="70.0" class="grid"/><text x="58" y="74.0" text-anchor="end">36°C</text><line x1="70" y1="470" x2="1030" y2="470" class="axis"/><text x="70.0" y="498" text-anchor="middle">Jul 2025</text><text x="308.8" y="498" text-anchor="middle">Oct 2025</text><text x="550.0" y="498" text-anchor="middle">Jan 2026</text><text x="791.2" y="498" text-anchor="middle">May 2026</text><text x="1030.0" y="498" text-anchor="middle">Aug 2026</text>
<path d="M 70.0,402.0 L 72.4,362.0 L 74.9,336.0 L 77.3,358.0 L 79.7,346.0 L 82.2,386.0 L 84.6,352.0 L 87.1,354.0 L 89.5,320.0 L 91.9,336.0 L 94.4,340.0 L 96.8,356.0 L 99.2,356.0 L 101.7,334.0 L 104.1,298.0 L 106.5,376.0 L 109.0,396.0 L 111.4,274.0 L 113.9,282.0 L 116.3,304.0 L 118.7,308.0 L 121.2,326.0 L 123.6,322.0 L 126.0,342.0 L 128.5,294.0 L 130.9,312.0 L 133.4,354.0 L 135.8,316.0 L 138.2,314.0 L 140.7,314.0 L 143.1,248.0 L 145.5,266.0 L 148.0,372.0 L 150.4,278.0 L 152.8,260.0 L 155.3,252.0 L 157.7,262.0 L 160.2,332.0 L 162.6,256.0 L 165.0,274.0 L 167.5,236.0 L 169.9,260.0 L 172.3,308.0 L 174.8,220.0 L 177.2,296.0 L 179.6,234.0 L 182.1,250.0 L 184.5,272.0 L 187.0,314.0 L 189.4,276.0 L 191.8,276.0 L 194.3,256.0 L 196.7,254.0 L 199.1,206.0 L 201.6,234.0 L 204.0,212.0 L 206.4,270.0 L 208.9,250.0 L 211.3,212.0 L 213.8,210.0 L 216.2,214.0 L 218.6,242.0 L 221.1,254.0 L 223.5,182.0 L 225.9,242.0 L 228.4,232.0 L 230.8,180.0 L 233.2,216.0 L 235.7,232.0 L 238.1,194.0 L 240.6,218.0 L 243.0,178.0 L 245.4,212.0 L 247.9,228.0 L 250.3,144.0 L 252.7,172.0 L 255.2,198.0 L 257.6,204.0 L 260.1,234.0 L 262.5,212.0 L 264.9,228.0 L 267.4,172.0 L 269.8,162.0 L 272.2,200.0 L 274.7,202.0 L 277.1,178.0 L 279.5,188.0 L 282.0,172.0 L 284.4,172.0 L 286.9,172.0 L 289.3,166.0 L 291.7,206.0 L 294.2,160.0 L 296.6,228.0 L 299.0,174.0 L 301.5,182.0 L 303.9,164.0 L 306.3,178.0 L 308.8,166.0 L 311.2,216.0 L 313.7,184.0 L 316.1,190.0 L 318.5,160.0 L 321.0,162.0 L 323.4,178.0 L 325.8,178.0 L 328.3,182.0 L 330.7,168.0 L 333.1,152.0 L 335.6,144.0 L 338.0,166.0 L 340.5,188.0 L 342.9,182.0 L 345.3,142.0 L 347.8,186.0 L 350.2,168.0 L 352.6,218.0 L 355.1,136.0 L 357.5,156.0 L 359.9,174.0 L 362.4,162.0 L 364.8,142.0 L 367.3,160.0 L 369.7,152.0 L 372.1,156.0 L 374.6,186.0 L 377.0,200.0 L 379.4,132.0 L 381.9,170.0 L 384.3,126.0 L 386.8,128.0 L 389.2,168.0 L 391.6,172.0 L 394.1,170.0 L 396.5,114.0 L 398.9,156.0 L 401.4,162.0 L 403.8,134.0 L 406.2,180.0 L 408.7,172.0 L 411.1,172.0 L 413.6,160.0 L 416.0,190.0 L 418.4,174.0 L 420.9,156.0 L 423.3,184.0 L 425.7,186.0 L 428.2,150.0 L 430.6,188.0 L 433.0,168.0 L 435.5,144.0 L 437.9,162.0 L 440.4,118.0 L 442.8,168.0 L 445.2,204.0 L 447.7,158.0 L 450.1,162.0 L 452.5,150.0 L 455.0,206.0 L 457.4,174.0 L 459.8,144.0 L 462.3,166.0 L 464.7,146.0 L 467.2,192.0 L 469.6,164.0 L 472.0,176.0 L 474.5,138.0 L 476.9,204.0 L 479.3,150.0 L 481.8,176.0 L 484.2,182.0 L 486.6,200.0 L 489.1,212.0 L 491.5,224.0 L 494.0,180.0 L 496.4,214.0 L 498.8,162.0 L 501.3,182.0 L 503.7,182.0 L 506.1,168.0 L 508.6,198.0 L 511.0,176.0 L 513.5,242.0 L 515.9,212.0 L 518.3,178.0 L 520.8,208.0 L 523.2,166.0 L 525.6,206.0 L 528.1,230.0 L 530.5,176.0 L 532.9,210.0 L 535.4,220.0 L 537.8,218.0 L 540.3,238.0 L 542.7,228.0 L 545.1,202.0 L 547.6,240.0 L 550.0,230.0 L 552.4,246.0 L 554.9,228.0 L 557.3,218.0 L 559.7,220.0 L 562.2,242.0 L 564.6,254.0 L 567.1,230.0 L 569.5,218.0 L 571.9,226.0 L 574.4,176.0 L 576.8,242.0 L 579.2,260.0 L 581.7,256.0 L 584.1,226.0 L 586.5,276.0 L 589.0,260.0 L 591.4,298.0 L 593.9,264.0 L 596.3,244.0 L 598.7,238.0 L 601.2,250.0 L 603.6,242.0 L 606.0,286.0 L 608.5,232.0 L 610.9,228.0 L 613.4,316.0 L 615.8,304.0 L 618.2,260.0 L 620.7,262.0 L 623.1,250.0 L 625.5,280.0 L 628.0,312.0 L 630.4,306.0 L 632.8,254.0 L 635.3,292.0 L 637.7,336.0 L 640.2,300.0 L 642.6,280.0 L 645.0,300.0 L 647.5,286.0 L 649.9,290.0 L 652.3,304.0 L 654.8,332.0 L 657.2,308.0 L 659.6,292.0 L 662.1,326.0 L 664.5,286.0 L 667.0,266.0 L 669.4,298.0 L 671.8,310.0 L 674.3,318.0 L 676.7,344.0 L 679.1,286.0 L 681.6,334.0 L 684.0,344.0 L 686.4,284.0 L 688.9,304.0 L 691.3,346.0 L 693.8,326.0 L 696.2,326.0 L 698.6,316.0 L 701.1,384.0 L 703.5,362.0 L 705.9,374.0 L 708.4,336.0 L 710.8,360.0 L 713.2,334.0 L 715.7,298.0 L 718.1,334.0 L 720.6,370.0 L 723.0,350.0 L 725.4,342.0 L 727.9,396.0 L 730.3,324.0 L 732.7,348.0 L 735.2,336.0 L 737.6,326.0 L 740.1,350.0 L 742.5,324.0 L 744.9,346.0 L 747.4,386.0 L 749.8,360.0 L 752.2,364.0 L 754.7,342.0 L 757.1,320.0 L 759.5,400.0 L 762.0,364.0 L 764.4,382.0 L 766.9,360.0 L 769.3,346.0 L 771.7,328.0 L 774.2,408.0 L 776.6,364.0 L 779.0,336.0 L 781.5,390.0 L 783.9,352.0 L 786.3,358.0 L 788.8,334.0 L 791.2,360.0 L 793.7,428.0 L 796.1,398.0 L 798.5,370.0 L 801.0,380.0 L 803.4,382.0 L 805.8,344.0 L 808.3,402.0 L 810.7,370.0 L 813.1,350.0 L 815.6,420.0 L 818.0,368.0 L 820.5,380.0 L 822.9,390.0 L 825.3,320.0 L 827.8,390.0 L 830.2,354.0 L 832.6,394.0 L 835.1,396.0 L 837.5,368.0 L 839.9,344.0 L 842.4,374.0 L 844.8,356.0 L 847.3,374.0 L 849.7,342.0 L 852.1,364.0 L 854.6,362.0 L 857.0,350.0 L 859.4,354.0 L 861.9,364.0 L 864.3,376.0 L 866.8,362.0 L 869.2,374.0 L 871.6,332.0 L 874.1,364.0 L 876.5,340.0 L 878.9,374.0 L 881.4,346.0 L 883.8,398.0 L 886.2,374.0 L 888.7,328.0 L 891.1,350.0 L 893.6,406.0 L 896.0,366.0 L 898.4,358.0 L 900.9,370.0 L 903.3,388.0 L 905.7,382.0 L 908.2,308.0 L 910.6,358.0 L 913.0,326.0 L 915.5,328.0 L 917.9,364.0 L 920.4,338.0 L 922.8,338.0 L 925.2,366.0 L 927.7,334.0 L 930.1,334.0 L 932.5,328.0 L 935.0,342.0 L 937.4,344.0 L 939.8,330.0 L 942.3,350.0 L 944.7,302.0 L 947.2,316.0 L 949.6,324.0 L 952.0,328.0 L 954.5,310.0 L 956.9,316.0" class="history"/><path d="M 956.9,316.0 L 959.3,338.6 L 961.8,339.0 L 964.2,339.4 L 966.6,339.8 L 969.1,340.2 L 971.5,340.6 L 974.0,340.9 L 976.4,341.3 L 978.8,341.7 L 981.3,342.1 L 983.7,342.5 L 986.1,342.9 L 988.6,343.3 L 991.0,343.6 L 993.5,344.0 L 995.9,344.4 L 998.3,344.8 L 1000.8,345.2 L 1003.2,345.6 L 1005.6,346.0 L 1008.1,346.3 L 1010.5,346.7 L 1012.9,347.1 L 1015.4,347.5 L 1017.8,347.9 L 1020.3,348.3 L 1022.7,348.7 L 1025.1,349.0 L 1027.6,349.4 L 1030.0,349.8" class="forecast"/>
<text x="840" y="54" fill="#2563eb">— Observed</text><text x="840" y="76" fill="#f97316">-- Forecast</text></svg>